HIERARCHY
ROOT Hips
{
    OFFSET 0.000000 0.000000 0.000000
    CHANNELS 6 Xposition Yposition Zposition Zrotation Xrotation Yrotation
    JOINT Spine
    {
        OFFSET -0.000000 7.246840 0.000000
        CHANNELS 3 Zrotation Xrotation Yrotation
        JOINT Spine1
        {
            OFFSET -0.000000 20.289354 0.000000
            CHANNELS 3 Zrotation Xrotation Yrotation
            JOINT Neck
            {
                OFFSET -0.000000 20.206032 1.836912
                CHANNELS 3 Zrotation Xrotation Yrotation
                JOINT Head
                {
                    OFFSET -0.000000 12.372654 -1.767522
                    CHANNELS 3 Zrotation Xrotation Yrotation
                    End Site
                    {
                        OFFSET -0.000000 22.094025 0.000000
                    }
                }
            }
            JOINT LeftShoulder
            {
                OFFSET 3.465871 17.201674 -0.568930
                CHANNELS 3 Zrotation Xrotation Yrotation
                JOINT LeftArm
                {
                    OFFSET 14.070313 0.000000 0.000000
                    CHANNELS 3 Zrotation Xrotation Yrotation
                    JOINT LeftForeArm
                    {
                        OFFSET 26.549477 0.000000 0.000000
                        CHANNELS 3 Zrotation Xrotation Yrotation
                        JOINT LeftHand
                        {
                            OFFSET 18.880413 0.000000 0.000000
                            CHANNELS 3 Zrotation Xrotation Yrotation
                            End Site
                            {
                                OFFSET 13.256415 0.000000 0.000000
                            }
                        }
                    }
                }
            }
            JOINT RightShoulder
            {
                OFFSET -3.526370 17.201674 -0.568930
                CHANNELS 3 Zrotation Xrotation Yrotation
                JOINT RightArm
                {
                    OFFSET -14.070313 0.000000 0.000000
                    CHANNELS 3 Zrotation Xrotation Yrotation
                    JOINT RightForeArm
                    {
                        OFFSET -26.549477 0.000000 0.000000
                        CHANNELS 3 Zrotation Xrotation Yrotation
                        JOINT RightHand
                        {
                            OFFSET -18.880413 0.000000 0.000000
                            CHANNELS 3 Zrotation Xrotation Yrotation
                            End Site
                            {
                                OFFSET -13.256415 0.000000 0.000000
                            }
                        }
                    }
                }
            }
        }
    }
    JOINT LeftUpLeg
    {
        OFFSET 8.837609 0.000000 0.000000
        CHANNELS 3 Zrotation Xrotation Yrotation
        JOINT LeftLeg
        {
            OFFSET -0.000000 -41.345005 0.000000
            CHANNELS 3 Zrotation Xrotation Yrotation
            JOINT LeftFoot
            {
                OFFSET -0.000000 -35.500874 0.000000
                CHANNELS 3 Zrotation Xrotation Yrotation
                JOINT LeftToeBase
                {
                    OFFSET -0.000000 -5.744446 13.256415
                    CHANNELS 3 Zrotation Xrotation Yrotation
                    End Site
                    {
                        OFFSET -0.000000 0.000000 3.535044
                    }
                }
            }
        }
    }
    JOINT RightUpLeg
    {
        OFFSET -8.837609 0.000000 0.000000
        CHANNELS 3 Zrotation Xrotation Yrotation
        JOINT RightLeg
        {
            OFFSET -0.000000 -41.345005 0.000000
            CHANNELS 3 Zrotation Xrotation Yrotation
            JOINT RightFoot
            {
                OFFSET -0.000000 -35.500874 0.000000
                CHANNELS 3 Zrotation Xrotation Yrotation
                JOINT RightToeBase
                {
                    OFFSET -0.000000 -5.744446 13.256415
                    CHANNELS 3 Zrotation Xrotation Yrotation
                    End Site
                    {
                        OFFSET -0.000000 0.000000 3.535044
                    }
                }
            }
        }
    }
}
MOTION
Frames:    5
Frame Time:    0.010000
9.890291    9.760785    -45.526867    10.772450    -33.459888    -0.733555    -0.061532    21.043514    -0.826382    -0.255168    20.136532    -0.792576    6.330220    58.775127    -3.224468    -21.747818    -59.042747    -14.707181    13.428581    9.563161    9.063037    -82.667351    -10.586313    -14.314843    31.724054    -39.694748    -121.517853    11.085924    19.892998    -5.024822    -4.908452    -5.059679    15.480338    65.293335    -19.801226    22.261217    -39.355446    -45.158680    118.019783    -23.991327    21.865528    25.299911    16.761307    -45.744267    21.004543    -3.253512    -6.096035    21.431246    9.798342    47.298111    -11.979284    0.512691    -4.229957    -0.736890    -36.025566    -52.612747    -25.243301    3.882794    -1.160686    -7.477126    21.408276    34.916656    -17.212257    0.310448    -4.809707    -0.587968    
9.893167    9.763835    -45.523056    10.797318    -33.476681    -0.738576    -0.042902    21.025562    -0.839781    -0.193726    20.159567    -0.813302    6.377635    58.733292    -3.245894    -21.855984    -58.989830    -14.771748    13.416476    9.554632    9.061526    -82.583046    -10.533015    -14.291360    31.702871    -39.790562    -121.489624    11.137545    19.663445    -5.196486    -4.930108    -5.051701    15.458767    65.293335    -19.801226    22.261217    -39.177990    -45.072033    118.167618    -23.848831    21.843121    25.177046    16.747900    -45.714165    20.986460    -3.256538    -6.104873    21.446859    9.821038    47.310837    -11.998494    0.508146    -4.206787    -0.730247    -36.012901    -52.611641    -25.169029    3.882095    -1.163069    -7.473017    21.400204    34.932926    -17.201111    0.324152    -4.783997    -0.613732    
9.893224    9.762441    -45.525860    10.828749    -33.478233    -0.721867    0.001553    21.013103    -0.868053    -0.190535    20.145969    -0.833961    6.328647    58.682297    -3.198361    -21.747396    -58.921021    -14.663193    13.446379    9.564650    9.074154    -82.492447    -10.494598    -14.332250    31.653698    -39.830467    -121.454086    11.071636    19.433958    -5.304309    -4.918225    -5.055796    15.423002    65.293335    -19.801226    22.261217    -38.988991    -44.954983    118.326424    -23.748915    21.837566    25.067970    16.713802    -45.714214    20.985773    -3.253873    -6.100795    21.435492    9.806656    47.309071    -12.010301    0.501209    -4.185814    -0.720181    -36.027222    -52.618729    -25.123817    3.870536    -1.164852    -7.429983    21.443211    34.940781    -17.239691    0.326830    -4.806091    -0.618967    
9.891146    9.761903    -45.526196    10.843204    -33.497971    -0.718765    0.063734    20.993198    -0.894886    -0.210472    20.156937    -0.845726    6.327253    58.662292    -3.218482    -21.683039    -58.892036    -14.637295    13.510621    9.533717    9.050658    -82.424980    -10.495242    -14.339931    31.839317    -39.915051    -121.222885    11.424665    19.366016    -5.872923    -4.860867    -5.105925    15.422338    65.293335    -19.801226    22.261217    -38.836086    -44.852684    118.444397    -23.599926    21.832899    24.997416    16.703077    -45.692814    20.981646    -3.251575    -6.098481    21.448784    9.834024    47.310909    -12.047084    0.484045    -4.151641    -0.695364    -36.008190    -52.612236    -25.060904    3.859591    -1.164590    -7.374626    21.459438    34.927803    -17.277218    0.351053    -4.804312    -0.664828    
9.890502    9.760439    -45.525951    10.853316    -33.525478    -0.723471    0.057107    20.977427    -0.898844    -0.131850    20.168655    -0.864876    6.342398    58.627895    -3.277342    -21.685478    -58.818573    -14.680567    13.518513    9.521021    9.041790    -82.381317    -10.500737    -14.369233    31.898155    -39.932201    -121.130684    11.277746    19.364355    -5.793819    -4.866103    -5.144558    15.432162    65.293335    -19.801226    22.261217    -38.787636    -44.784416    118.457832    -23.543028    21.837511    24.958107    16.690872    -45.657818    20.992363    -3.246072    -6.105890    21.449072    9.852454    47.305546    -12.050748    0.485858    -4.154110    -0.697980    -35.972179    -52.598694    -24.971279    3.862266    -1.169858    -7.356831    21.432259    34.926109    -17.251827    0.353438    -4.808675    -0.669379    
